<?xml version="1.0" encoding="utf-8"?>
<!-- Generator: Adobe Illustrator 16.0.0, SVG Export Plug-In . SVG Version: 6.00 Build 0)  -->
<!DOCTYPE svg PUBLIC "-//W3C//DTD SVG 1.1//EN" "http://www.w3.org/Graphics/SVG/1.1/DTD/svg11.dtd">
<svg version="1.1" id="Camada_1" xmlns="http://www.w3.org/2000/svg" xmlns:xlink="http://www.w3.org/1999/xlink" x="0px" y="0px"
	 width="205px" height="59px" viewBox="0 0 205 59" enable-background="new 0 0 205 59" xml:space="preserve">
<linearGradient id="SVGID_1_" gradientUnits="userSpaceOnUse" x1="1.5605" y1="29.1865" x2="62.0186" y2="29.1865">
	<stop  offset="0" style="stop-color:#FFFFFF"/>
	<stop  offset="0.0506" style="stop-color:#FAEEEF"/>
	<stop  offset="0.2394" style="stop-color:#E9B4B8"/>
	<stop  offset="0.422" style="stop-color:#DB848A"/>
	<stop  offset="0.5938" style="stop-color:#CF5E67"/>
	<stop  offset="0.7522" style="stop-color:#C8434D"/>
	<stop  offset="0.8925" style="stop-color:#C3333D"/>
	<stop  offset="1" style="stop-color:#C12D38"/>
</linearGradient>
<path fill="url(#SVGID_1_)" stroke="#202B84" stroke-miterlimit="10" d="M32.304,29.055L17.092,2.866
	c-0.071-0.125-0.231-0.167-0.355-0.096c-0.04,0.023-0.072,0.056-0.095,0.096L1.596,29.055c-0.047,0.083-0.047,0.183,0,0.266
	l15.211,26.188c0.072,0.127,0.231,0.168,0.356,0.096c0.04-0.024,0.073-0.059,0.097-0.099l15.044-26.188
	C32.352,29.236,32.351,29.137,32.304,29.055z M36.918,26.018c0.046,0.082,0.132,0.131,0.224,0.132h7.854
	c0.146-0.003,0.261-0.122,0.259-0.266c0-0.047-0.012-0.09-0.036-0.13L32.157,2.866c-0.045-0.08-0.131-0.131-0.224-0.131H24.08
	c-0.145,0.002-0.263,0.121-0.26,0.266c0,0.045,0.012,0.09,0.035,0.128L36.918,26.018z M61.983,29.055L47.011,2.867
	c-0.047-0.081-0.133-0.132-0.226-0.132H38.92C38.775,2.736,38.66,2.856,38.66,3c0.001,0.046,0.013,0.089,0.036,0.129l14.898,26.058
	L38.696,55.245c-0.074,0.126-0.03,0.285,0.097,0.358c0.039,0.021,0.083,0.033,0.128,0.033h7.865c0.092,0,0.178-0.048,0.225-0.132
	L61.983,29.32C62.03,29.237,62.03,29.137,61.983,29.055z M44.781,32.601h-7.853c-0.094,0.003-0.18,0.05-0.225,0.133L23.855,55.245
	c-0.073,0.126-0.03,0.285,0.096,0.358c0.039,0.021,0.084,0.033,0.129,0.033h7.854c0.092,0,0.178-0.048,0.225-0.132l12.847-22.511
	c0.073-0.125,0.031-0.284-0.095-0.357C44.871,32.612,44.827,32.604,44.781,32.601z"/>
<text transform="matrix(1 0 0 1 63.4346 38.251)" fill="#C2C3C9" font-family="'LucidaSansUnicode'" font-size="31.4545">AlphaNet</text>
</svg>
